<?xml version="1.0" encoding="UTF-8" standalone="no"?>
<!-- Generator: Adobe Illustrator 15.0.0, SVG Export Plug-In . SVG Version: 6.00 Build 0)  -->

<svg
   width="911.45673"
   height="181.78426"
   version="1.1"
   id="svg2"
   xml:space="preserve"
   xmlns="http://www.w3.org/2000/svg"
   xmlns:svg="http://www.w3.org/2000/svg"><defs
     id="defs2" /><g
     id="g25"
     transform="translate(197.09342,-440.01261)"
     style="fill:#ffffff"><path
       d="m 669.04883,499.36914 c -21.623,0 -38.31836,19.87489 -38.31836,44.83789 0,24.962 16.69536,44.83789 38.31836,44.83789 9.381,0 15.74164,-2.70401 21.30664,-9.54101 1.749,3.816 5.56347,7.94921 11.60547,7.94921 7.314,10e-6 12.40234,-5.7239 12.40234,-12.8789 v -60.73438 c 0,-7.155 -5.08834,-12.8789 -12.40234,-12.8789 -6.042,0 -9.85647,4.13322 -11.60547,7.94922 -5.566,-6.837 -11.92564,-9.54102 -21.30664,-9.54102 z m 3.49804,23.85156 c 10.97101,0 17.01368,9.53833 17.01368,20.98633 0,11.447 -6.04268,20.98633 -17.01368,20.98633 -10.971,0 -17.01367,-9.53933 -17.01367,-20.98633 0,-11.448 6.04267,-20.98633 17.01367,-20.98633 z"
       style="fill:#ffffff"
       id="path37" /><path
       d="m 610.69922,500.96094 c -7.313,0 -12.40039,5.7239 -12.40039,12.8789 v 60.73438 c 0,7.155 5.08739,12.8789 12.40039,12.8789 7.314,10e-6 12.40234,-5.7239 12.40234,-12.8789 v -60.73438 c 0,-7.155 -5.08834,-12.8789 -12.40234,-12.8789 z"
       style="fill:#ffffff"
       id="path36" /><path
       d="m 552.3457,499.36914 c -9.381,0 -15.74164,2.70402 -21.30664,9.54102 -1.748,-3.816 -5.56347,-7.94922 -11.60547,-7.94922 -7.313,0 -12.40039,5.7239 -12.40039,12.8789 v 95.08008 c 0,7.154 5.08739,12.87695 12.40039,12.87695 7.314,10e-6 12.40235,-5.72295 12.40235,-12.87695 v -26.87109 c 4.451,3.657 9.85776,6.99609 20.50976,6.99609 21.624,0 38.31836,-19.87589 38.31836,-44.83789 0,-24.963 -16.69436,-44.83789 -38.31836,-44.83789 z m -3.49609,23.85156 c 10.971,0 17.01172,9.53833 17.01172,20.98633 0,11.447 -6.04072,20.98633 -17.01172,20.98633 -10.972,0 -17.01367,-9.53933 -17.01367,-20.98633 0,-11.448 6.04167,-20.98633 17.01367,-20.98633 z"
       style="fill:#ffffff"
       id="path35" /><path
       d="m 451.22461,499.36914 c -21.623,0 -38.31836,19.87489 -38.31836,44.83789 0,24.962 16.69536,44.83789 38.31836,44.83789 9.381,0 15.74164,-2.70401 21.30664,-9.54101 1.749,3.816 5.56347,7.94921 11.60547,7.94921 7.314,10e-6 12.40234,-5.7239 12.40234,-12.8789 v -60.73438 c 0,-7.155 -5.08834,-12.8789 -12.40234,-12.8789 -6.042,0 -9.85647,4.13322 -11.60547,7.94922 -5.566,-6.837 -11.92564,-9.54102 -21.30664,-9.54102 z m 3.49805,23.85156 c 10.971,0 17.01367,9.53833 17.01367,20.98633 0,11.447 -6.04267,20.98633 -17.01367,20.98633 -10.971,0 -17.01172,-9.53933 -17.01172,-20.98633 0,-11.448 6.04072,-20.98633 17.01172,-20.98633 z"
       style="fill:#ffffff"
       id="path34" /><path
       d="m 326.88867,499.36914 c -8.905,0 -17.33164,3.34002 -21.30664,9.54102 -1.589,-3.657 -5.72239,-7.94922 -12.40039,-7.94922 -7.314,0 -12.40234,5.7239 -12.40234,12.8789 h 0.004 v 60.73438 c 0,7.155 5.08835,12.8789 12.40235,12.8789 7.313,10e-6 12.40039,-5.7239 12.40039,-12.8789 v -39.27149 c 0,-7.79 4.29239,-14.94531 12.40039,-14.94531 8.109,0 12.40234,7.15531 12.40234,14.94531 v 39.27149 c 0,7.155 5.08739,12.8789 12.40039,12.8789 7.313,10e-6 12.40235,-5.7239 12.40235,-12.8789 v -39.27149 c 0,-7.79 4.29334,-14.94531 12.40234,-14.94531 8.108,0 12.40039,7.15531 12.40039,14.94531 v 39.27149 c 0,7.155 5.08834,12.8789 12.40234,12.8789 7.313,10e-6 12.40039,-5.7239 12.40039,-12.8789 V 528.625 c 0,-20.352 -13.6737,-29.25586 -30.8457,-29.25586 -10.653,0 -18.12481,5.72573 -24.00781,10.17773 -6.042,-7.632 -15.90069,-10.17773 -23.05469,-10.17773 z"
       style="fill:#ffffff"
       id="path33" /><path
       d="m 257.4082,464.07227 c -8.108,0 -14.78711,6.5201 -14.78711,14.7871 0,8.26701 6.67911,14.78711 14.78711,14.78711 8.109,0 14.78711,-6.52011 14.78711,-14.78711 0,-8.267 -6.67811,-14.7871 -14.78711,-14.7871 z"
       style="fill:#ffffff"
       id="path32" /><path
       d="m 257.4082,500.96094 c -7.313,0 -12.40039,5.7239 -12.40039,12.8789 v 60.73438 c 0,7.155 5.08739,12.8789 12.40039,12.8789 7.314,10e-6 12.40235,-5.7239 12.40235,-12.8789 v -60.73438 c 0,-7.155 -5.08835,-12.8789 -12.40235,-12.8789 z"
       style="fill:#ffffff"
       id="path31" /><path
       d="m 178.38477,464.07227 c -7.314,0 -12.40235,5.7249 -12.40235,12.8789 v 97.62305 c 0,7.155 5.08835,12.8789 12.40235,12.8789 7.314,0 12.40234,-5.7239 12.40234,-12.8789 V 546.5918 h 0.31836 l 24.80273,32.43554 c 5.247,6.678 7.79163,8.42578 13.51563,8.42578 8.586,10e-6 12.24219,-6.67626 12.24219,-11.44726 0,-3.657 -3.33882,-7.7897 -5.88282,-10.9707 l -20.82812,-26.39454 13.35547,-13.19531 c 5.883,-5.724 8.74414,-8.58706 8.74414,-13.03906 0,-6.042 -4.77099,-11.44531 -12.08399,-11.44531 -6.042,0 -9.69918,4.29293 -13.99218,8.58593 l -20.19141,20.19141 v -52.78711 c 0,-7.154 -5.08834,-12.8789 -12.40234,-12.8789 z"
       style="fill:#ffffff"
       id="path30" /><path
       d="m 142.61328,464.07227 c -8.109,0 -14.78711,6.5201 -14.78711,14.7871 0,8.26701 6.67811,14.78711 14.78711,14.78711 8.109,0 14.78711,-6.52011 14.78711,-14.78711 0,-8.267 -6.67811,-14.7871 -14.78711,-14.7871 z"
       style="fill:#ffffff"
       id="path29" /><path
       d="m 142.61133,500.96094 c -7.313,0 -12.40039,5.7239 -12.40039,12.8789 v 60.73438 c 0,7.155 5.08739,12.8789 12.40039,12.8789 7.314,10e-6 12.40234,-5.7239 12.40234,-12.8789 v -60.73438 c 0,-7.155 -5.08834,-12.8789 -12.40234,-12.8789 z"
       style="fill:#ffffff"
       id="path28" /><path
       d="m 15.890625,500.96094 c -8.268,0 -12.5605469,5.40383 -12.5605469,11.92383 0.318,4.452 1.7494063,8.26803 3.8164063,13.83203 l 17.3281246,48.49414 c 2.862,8.109 6.996828,12.24218 15.423828,12.24218 8.904,0 11.92511,-4.6101 14.78711,-13.0371 l 9.699219,-29.25586 h 0.316406 l 9.699219,29.25586 c 2.863,8.427 5.883109,13.0371 14.787109,13.0371 8.427,10e-6 12.56183,-4.13318 15.42383,-12.24218 l 17.33008,-48.49414 c 2.067,-5.564 3.4984,-9.38003 3.8164,-13.83203 0,-6.52 -4.29254,-11.92383 -12.56054,-11.92383 -5.883,0 -10.17563,3.17914 -11.76563,8.74414 L 89.347656,549.93164 H 89.029297 L 77.900391,515.11133 c -2.066,-6.518 -4.452469,-14.15039 -13.355469,-14.15039 -8.904,0 -11.288469,7.63139 -13.355469,14.15039 l -11.130859,34.82031 h -0.31836 L 27.65625,509.70508 c -1.59,-5.565 -5.882625,-8.74414 -11.765625,-8.74414 z"
       style="fill:#ffffff"
       id="path27" /></g><g
     id="g37"
     transform="matrix(0.41043364,0,0,0.41043364,193.17556,-127.4777)"><path
       d="m -257.02149,310.59271 c -117.99,0 -213.64062,95.65062 -213.64062,213.64062 0,117.989 95.65062,213.64063 213.64062,213.64063 117.99,0 213.640632,-95.65063 213.640632,-213.64063 v -0.002 h -47 v 0.002 c 0,92.034 -74.607632,166.64063 -166.640632,166.64063 -92.033,0 -166.64062,-74.60663 -166.64062,-166.64063 0,-92.033 74.60662,-166.64062 166.64062,-166.64062 z"
       style="fill:#cc0000"
       id="path26" /><path
       d="m -257.01953,408.52435 v 115.70898 l 115.70703,0.002 c 0,63.905 -51.80203,115.70704 -115.70703,115.70704 -63.905,0 -115.70899,-51.80399 -115.70899,-115.70899 0,-63.905 51.80399,-115.70898 115.70899,-115.70898 z"
       style="fill:#cc0000"
       id="path25" /></g></svg>
